<svg xmlns="http://www.w3.org/2000/svg" width="1068" height="489" viewBox="0 0 1068 489" fill="none"><path d="M642.811 86.8494C643.182 80.9731 638.971 79.5006 634.554 78.7024C631.898 78.2207 629.076 78.6336 626.324 78.6061C602.268 78.3859 578.226 78.1381 554.171 77.9317C550.469 77.9042 548.129 76.9822 545.721 73.2527C531.945 51.9219 517.317 31.1415 503.445 9.86569C499.082 3.17744 493.206 1.6774 486.146 1.69116C476.072 1.71868 465.985 1.69116 455.911 1.69116H304.738C302.907 1.69116 300.898 2.18659 299.274 1.59483C294.017 -0.276782 291.141 2.51687 288.966 6.5078C272.205 37.1554 255.346 67.7617 238.832 98.547C230.465 114.153 222.813 130.144 214.666 145.874C212.726 149.631 211.253 153.498 210.689 157.585C210.221 160.957 210.717 164.48 214.061 166.462C217.24 168.347 220.309 166.737 222.937 165.072C230.286 160.434 233.382 152.7 236.713 145.213C256.2 101.272 275.645 57.3165 295.146 13.375C296.013 11.407 296.701 9.15007 299.852 8.40693C309.554 23.7514 319.38 39.2472 329.357 54.6467C350.922 87.9641 370.739 122.437 394.754 154.145C400.465 161.686 399.419 164.618 389.951 165.003C367.285 165.939 344.551 166.888 321.94 164.962C298.889 163.007 290.742 146.369 289.063 128.025C288.347 120.208 288.801 112.35 291.595 104.657C298.283 86.1613 314.151 82.4318 327.458 96.4139C332.523 101.726 332.77 108.469 333.527 114.992C334.518 123.704 332.894 132.401 332.206 141.071C331.394 151.2 325.078 157.723 317.123 163.049" stroke="black" stroke-width="2" stroke-linecap="round" stroke-linejoin="round"></path><path d="M108.879 372.532C106.003 357.56 106.209 342.311 105.714 327.201C105.342 315.999 100.856 306.765 96.7272 296.911C91.0848 283.466 84.0938 269.319 88.5939 254.525C94.4152 235.354 90.5206 216.955 88.4838 198.087C86.9012 183.486 86.3095 168.637 90.3554 154.16C95.5161 135.705 107.902 123.567 125.462 117.278C136.568 113.301 148.114 110.425 160.458 112.805C178.789 116.342 189.661 129.416 188.505 149.329C187.239 171.403 188.106 193.353 190.679 215.262C192.922 234.364 196.556 253.148 204.4 270.887C207.73 278.401 211.762 285.489 217.474 291.475C222.717 296.966 226.57 296.113 229.804 288.737C234.112 278.897 234.924 268.3 235.942 257.841C238.006 236.373 237.442 214.822 237.318 193.298C237.291 187.119 237.167 180.775 235.832 174.802C234.194 167.509 236.644 164.178 244.942 164.564C257.768 165.155 270.553 166.49 283.434 166.587C291.994 166.655 300.526 166.876 308.866 164.467" stroke="black" stroke-width="2" stroke-linecap="round" stroke-linejoin="round"></path><path d="M326.027 325.837C325.394 322.961 327.031 320.553 328.187 318.337C338.522 298.327 331.38 282.928 307.462 278.51C294.567 276.13 281.947 277.932 270.415 284.043C249.855 294.928 229.515 306.24 209.244 317.649C196.927 324.585 186.041 333.723 176.394 343.852C161.229 359.76 132.012 354.627 125.145 331.411C121.251 318.255 118.581 305.057 117.136 291.515" stroke="black" stroke-width="2" stroke-linecap="round" stroke-linejoin="round"></path><path d="M735.58 110.203C731.685 112.144 727.694 110.341 723.924 109.997C714.373 109.116 705.29 109.955 696.4 113.602C688.404 116.878 686.299 123.621 691.638 130.089C694.418 133.461 697.845 136.309 700.46 139.791C703.928 144.388 703.46 148.901 699.111 153.429C692.616 160.214 685.831 166.709 679.225 173.384C668.656 184.063 670.294 191.756 683.987 198.871C692.712 203.412 702.015 206.55 710.313 212.261C720.194 219.059 722.947 227.991 717.69 239.289C712.501 250.422 708.318 262.106 711.717 274.258C716.85 292.602 726.772 307.988 744.566 316.768C747.801 318.365 751.833 318.268 755.507 316.892" stroke="black" stroke-width="2" stroke-linecap="round" stroke-linejoin="round"></path><path d="M460.714 415.11C463.686 425.184 466.508 435.313 469.687 445.318C474.063 459.038 490.88 470.282 507.38 467.653C514.523 466.511 519.656 467.35 524.72 472.002C525.271 472.511 526.55 472.759 527.376 473.474C544.854 488.365 557.418 487.264 578.873 476.873C588.644 472.139 597.892 466.304 607.828 461.969C618.273 457.414 629.434 456.396 640.746 459.066C661.637 463.992 680.201 459.368 696.372 445.29C697.473 444.327 698.436 443.749 699.84 443.955" stroke="black" stroke-width="2" stroke-linecap="round" stroke-linejoin="round"></path><path d="M495.766 78.6201C491.431 80.7807 491.004 84.6203 490.908 88.914C490.344 113.878 490.055 138.856 488.197 163.765C487.894 167.811 488.692 170.109 493.715 170.067C506.541 169.944 519.367 170.425 532.193 170.632C548.226 170.879 564.258 171.045 580.291 171.361C584.172 171.444 586.442 170.549 588.741 166.627C599.048 148.971 610.058 131.713 620.861 114.332C621.893 112.681 622.113 110.107 624.962 110.204" stroke="black" stroke-width="2" stroke-linecap="round" stroke-linejoin="round"></path><path d="M460.026 316.905C472.191 315.089 474.228 307.052 473.925 296.304C473.196 271.34 475.123 246.28 470.98 221.467C470.402 217.972 469.783 214.283 468.173 211.214C462.737 200.921 450.971 199.09 441.516 207.086C431.842 215.274 426.461 225.94 426.447 238.628C426.447 261.982 425.442 285.363 427.685 308.676C427.809 310.011 427.273 311.414 427.039 312.791" stroke="black" stroke-width="2" stroke-linecap="round" stroke-linejoin="round"></path><path d="M813.237 291.501C811.668 284.483 814.462 277.175 811.544 270.28C813.306 268.519 815.15 267.638 817.269 267.418C818.205 268.189 818.632 268.959 818.797 270.198C819.526 275.689 818.164 280.863 816.636 285.996C814.228 294.047 812.219 302.277 808.985 309.983C802.654 325.039 803.604 341.099 801.663 356.746C800.769 363.985 799.351 371.1 797.273 377.967C794.191 388.192 787.791 395.486 776.865 398.761C766.461 401.885 755.919 403.412 745.254 405.078C730.666 407.362 719.216 415.784 710.821 428.115C708.537 431.473 705.812 434.542 703.294 437.748C702.592 438.643 701.546 439.482 701.284 440.501C696.688 458.391 681.963 461.9 666.852 464.446C654.591 466.497 642.136 466.111 629.764 465.836C616.828 465.547 605.241 468.905 593.928 475.332C580.896 482.736 566.845 487.649 551.432 487.993C541.95 488.199 534.064 483.795 526.11 480.08C519.807 477.135 513.463 475.359 506.761 474.121C493.921 471.74 481.412 468.437 469.563 462.643C466.109 460.951 463.342 458.859 460.714 456.299" stroke="black" stroke-width="2" stroke-linecap="round" stroke-linejoin="round"></path><path d="M458.65 317.594C454.755 317.828 450.806 317.731 446.98 318.337C431.36 320.828 422.814 312.007 416.002 299.759C406.589 282.845 402.405 264.638 401.593 245.482C401.236 237.005 400.85 228.527 400.19 220.078C399.392 209.908 394.781 205.462 384.419 205.008C366.102 204.196 347.771 203.591 329.44 202.917C325.174 202.751 322.807 202.861 322.945 209.096C323.371 228.073 324.087 247.106 322.573 266.083C321.954 273.831 324.293 276.515 332.179 278.497C341.95 280.974 351.872 280.712 361.739 280.396C370.285 280.12 373.203 276.639 373.423 268.148C373.905 249.831 374.373 231.527 374.772 213.21C374.827 210.926 374.345 208.628 374.125 206.343" stroke="black" stroke-width="2" stroke-linecap="round" stroke-linejoin="round"></path><path d="M616.705 255.79C618.783 257.965 621.384 259.011 624.218 260.015C632.833 263.084 640.1 268.149 645.604 275.663C649.21 280.589 660.976 282.86 666.894 280.576C670.761 279.089 671.119 276.268 670.981 272.938C670.527 261.488 670.142 250.038 669.591 238.602C668.999 226.23 667.995 213.886 667.623 201.514C667.279 190.298 667.555 179.068 667.555 167.137C657.536 167.233 649.196 169.394 640.76 170.632C628.609 172.421 616.443 174.073 604.346 176.178C593.309 178.091 592.731 179.123 592.635 189.858C592.484 205.656 592.553 221.468 591.782 237.239C591.493 243.295 589.016 249.13 584.447 253.767C580.58 257.69 576.506 261.281 573.203 265.933C567.712 273.653 565.607 281.635 570.878 288.599C574.236 293.044 576.396 298.067 579.616 302.471C586.539 311.925 594.011 320.733 606.411 323.072C616.842 325.04 627.934 320.168 633.219 311.402C635.228 308.058 635.462 304.205 633.769 301.177C628.485 291.723 621.906 283.121 613.87 275.8C612.039 274.135 608.846 272.91 606.424 273.117C596.874 273.929 587.433 275.346 579.548 281.8C576.327 284.443 576.492 288.323 574.8 291.489" stroke="black" stroke-width="2" stroke-linecap="round" stroke-linejoin="round"></path><path d="M205.776 84.7987C188.766 79.9821 172.39 82.3491 156.289 88.886C140.228 95.4091 125.407 104.781 108.865 110.134C93.2731 115.185 77.0617 117.056 60.7814 118.46C40.8405 120.18 20.9271 119.685 1 118.433" stroke="black" stroke-width="2" stroke-linecap="round" stroke-linejoin="round"></path><path d="M566.542 264.722C566.996 255.103 567.698 245.497 567.863 235.877C568.084 222.019 564.423 217.56 550.73 216.803C538.165 216.102 525.546 216.583 512.94 216.693C509.045 216.721 506.678 219.143 506.114 222.845C504.6 232.671 502.839 242.483 502.082 252.378C501.421 261.089 505.22 265.493 514.316 265.947C529.867 266.718 545.377 269.415 561.065 266.938C565.428 266.25 568.799 262.754 573.409 263.36" stroke="black" stroke-width="2" stroke-linecap="round" stroke-linejoin="round"></path><path d="M756.882 121.185C763.749 128.286 771.18 134.919 777.401 142.557C803.122 174.099 813.415 209.783 801.938 249.527C796.076 269.84 785.176 288.295 773.231 305.827C771.621 308.194 769.845 311.662 765.813 311.414" stroke="black" stroke-width="2" stroke-linecap="round" stroke-linejoin="round"></path><path d="M259.379 196.738C258.594 215.496 258.484 234.294 257.755 253.038C257.108 269.896 266.053 271.231 277.241 272.194C282.705 272.662 288.265 271.864 293.714 272.387C299.783 272.965 301.325 270.763 301.297 264.722C301.256 250.753 301.228 236.799 301.311 222.831C301.338 218.248 301.696 213.665 301.971 209.096C302.453 200.949 301.641 199.766 293.714 197.426" stroke="black" stroke-width="2" stroke-linecap="round" stroke-linejoin="round"></path><path d="M137.064 115.005C131.6 120.331 124.059 121.941 117.714 125.822C99.9204 136.721 93.2184 152.781 94.5533 172.681C95.7092 189.883 97.512 207.044 99.3148 224.191C100.677 237.169 104.076 249.169 114.233 258.692C119.559 263.688 119.311 271.491 119.834 278.454C120.109 282.101 119.889 285.775 119.889 289.436" stroke="black" stroke-width="2" stroke-linecap="round" stroke-linejoin="round"></path><path d="M750.704 336.819C743.039 325.81 730.735 320.195 721.006 311.58C717.648 308.607 713.561 306.185 710.23 303.089C703.528 296.855 695.588 294.556 686.794 294.254C684.964 294.185 683.106 294.047 681.303 294.281C664.692 296.346 651.55 290.001 640.747 277.781C624.356 259.23 604.003 255.569 580.965 261.927C579.686 262.285 578.227 261.968 576.851 261.968" stroke="black" stroke-width="2" stroke-linecap="round" stroke-linejoin="round"></path><path d="M197.533 296.993C194.079 309.901 189.194 321.957 178.308 330.654C168.042 338.843 147.936 340.012 138.468 332.664C134.945 329.939 132.179 326.622 132.234 321.709C132.289 317.36 129.578 313.92 127.252 310.865C124.609 307.397 122.642 303.695 122.119 299.704C121.472 294.64 117.935 291.075 116.641 286.616C115.114 281.373 115.609 275.552 114.274 270.226C111.439 258.969 109.829 256.946 101.311 255.157C95.4344 253.918 91.8563 257.097 91.7325 263.331C91.5673 272.634 95.5858 280.919 98.5859 289.424C102.288 299.938 109.031 309.434 109.54 321.021C110.105 334.067 110.283 347.127 111.013 360.16C111.481 368.678 108.949 377.376 110.531 385.523C114.728 407.019 122.187 417.299 145.982 418.606C164.588 419.625 181.735 425.859 198.249 434.24C205.859 438.107 207.47 445.607 210.483 452.226C213.704 459.3 218.19 464.598 225.621 467.461C226.998 467.984 227.52 467.02 228.429 467.296" stroke="black" stroke-width="2" stroke-linecap="round" stroke-linejoin="round"></path><path d="M613.952 349.866C611.681 349.811 609.851 349.412 607.663 347.967C596.006 340.288 589.979 327.944 581.79 317.485C572.928 306.145 563.281 295.755 552.134 286.658C533.032 271.052 502.798 281.277 495.132 301.824C492.806 308.044 493.921 314.856 498.008 319.48C506.637 329.237 513.312 340.137 519.821 351.229C520.399 352.206 521.83 353.114 521.761 353.981C521.101 362.899 527.032 369.849 528.697 378.037C531.023 389.432 525.904 398.074 516.931 403.95C508.522 409.469 499.343 410.804 489.462 405.698C481.824 401.749 475.246 397.331 470.911 389.762C470.072 388.303 468.792 386.143 465.269 387.478C468.31 392.556 471.393 397.634 474.434 402.753C477.489 407.9 476.953 411.85 472.343 414.354C468.035 416.694 464.636 414.74 462.393 410.859C457.879 411.396 455.98 413.997 456.64 417.85C458.622 429.382 456.186 440.763 455.787 452.199C455.374 464.09 441.2 472.278 429.777 470.668C422.016 469.567 414.529 467.131 407.07 464.64C400.726 462.521 394.836 463.181 388.409 466.36C380.248 470.379 371.138 470.709 361.711 469.677C352.394 468.659 342.871 468.659 333.596 467.172C323.192 465.507 312.581 463.773 302.742 460.209C288.085 454.883 274.42 457.608 260.809 462.713C257.603 463.925 254.121 464.778 251.121 466.636" stroke="black" stroke-width="2" stroke-linecap="round" stroke-linejoin="round"></path><path d="M308.165 338.882C307.298 334.011 311.798 331.919 313.835 328.699C316.752 324.089 320.564 319.946 322.518 314.827C329.537 296.441 322.697 285.211 303.334 282.679C294.1 281.468 286.435 284.441 282.004 293.551C276.788 304.285 271.792 315.102 268.324 326.538C265.778 334.947 268.682 339.887 277.214 343.066C283.572 345.447 289.93 345.585 296.481 344.442C297.554 344.25 298.766 344.841 299.908 345.075" stroke="black" stroke-width="2" stroke-linecap="round" stroke-linejoin="round"></path><path d="M645.563 272.951C647.489 272.277 648.769 274.024 650.379 274.272C654.013 274.809 656.875 273.35 657.178 269.524C658.568 251.923 660.453 234.308 657.907 216.651C657.577 214.339 657.26 211.986 656.503 209.798C653.806 201.912 650.145 199.49 641.434 199.477C634.058 199.477 626.819 199.793 620.09 203.536C616.883 205.325 614.103 206.825 613.883 211.147C613.14 225.39 611.984 239.634 615.314 253.726" stroke="black" stroke-width="2" stroke-linecap="round" stroke-linejoin="round"></path><path d="M472.397 174.073C478.397 180.197 480.2 187.629 480.035 196.051C479.567 218.703 479.608 241.369 479.223 264.034C479.003 277.081 477.778 290.141 478.053 303.173C478.342 317.169 473.292 320.651 460.025 318.283" stroke="black" stroke-width="2" stroke-linecap="round" stroke-linejoin="round"></path><path d="M719.78 101.96C726.18 103.309 731.726 106.102 737.079 110.038C743.065 114.442 750.249 117.511 757.061 120.043C763.804 122.561 768.993 126.456 774.016 130.86C797.177 151.186 806.177 178.214 809.824 207.706C811.475 221.027 809.893 234.266 809.177 247.546C808.778 254.813 810.815 261.831 812.549 268.836" stroke="black" stroke-width="2" stroke-linecap="round" stroke-linejoin="round"></path><path d="M401.621 349.866C401.978 355.701 398.235 360.118 395.992 364.907C389.937 377.83 392.978 383.885 405.722 389.059C412.19 391.688 418.96 393.023 425.69 394.399C431.663 395.61 437.704 392.28 440.718 386.224C443.911 379.798 445.947 373.027 446.388 365.664C447.489 347.361 432.227 339.476 417.405 342.187C402.914 344.843 393.322 353.802 385.148 364.976C368.909 387.188 351.83 408.78 338.206 432.836C335.33 437.9 330.197 441.891 323.274 441.189" stroke="black" stroke-width="2" stroke-linecap="round" stroke-linejoin="round"></path><path d="M410.552 435.023C409.08 428.996 413.704 425.72 416.814 422.046C423.282 414.367 431.746 408.546 437.374 400.027C445.838 387.229 452.251 373.522 456.696 358.838C457.398 356.526 457.219 354.668 456.572 352.631C452.622 340.218 443.87 332.58 431.828 328.644C416.842 323.745 408.818 332.938 406.424 344.388" stroke="black" stroke-width="2" stroke-linecap="round" stroke-linejoin="round"></path><path d="M113.008 380.774C114.618 385.357 116.448 389.857 117.769 394.522C121.141 406.426 129.536 412.083 141.178 413.706C156.247 415.812 171.262 418.124 185.849 422.638C190.625 424.124 195.73 424.826 200.217 426.904C207.331 430.207 211.157 436.647 213.29 443.955C216.07 453.492 222.731 460.277 229.13 467.295C231.029 469.387 233.63 469.167 236.011 469.291C240.126 469.497 244.254 469.346 248.383 469.346" stroke="black" stroke-width="2" stroke-linecap="round" stroke-linejoin="round"></path><path d="M640.761 88.9132C636.962 88.7756 636.549 91.8995 635.215 94.3767C623.834 115.474 612.397 136.543 600.865 157.557C598.305 162.236 595.333 166.681 591.493 172.943C621.274 168.787 649.582 163.984 678.33 159.044C670.954 146.919 663.77 135.07 656.532 123.249C653.146 117.717 649.527 112.336 646.293 106.735C644.518 103.638 642.618 100.57 644.022 96.4134C644.917 93.7987 643.706 90.9362 641.421 88.9132C645.618 84.0003 649.238 84.6195 653.16 89.56C662.821 101.753 670.926 114.964 679.239 128.038C682.775 133.612 686.354 139.185 690.289 144.47C692.422 147.332 695.216 150.36 692.12 153.291C688.721 156.525 684.124 155.039 680.684 152.631C678.372 151.02 676.61 148.364 675.151 145.86C665.656 129.662 656.339 113.368 646.857 97.1703C646.43 96.4547 646.541 94.7758 644.862 95.0648" stroke="black" stroke-width="2" stroke-linecap="round" stroke-linejoin="round"></path><path d="M517.756 79.9825C509.925 77.5467 501.641 78.5926 493.645 76.8311C490.122 76.0604 485.787 78.2073 485.457 83.4092C485.003 90.5103 484.205 97.5977 484.136 104.699C483.792 147.966 483.172 191.233 483.585 234.487C483.792 256.23 483.833 277.988 484.094 299.732C484.122 301.658 483.627 303.736 485.76 305.47C489.2 301.851 490.673 297.089 493.026 292.864C503.031 274.809 516.682 268.121 537.697 270.873C543.862 271.685 550.055 272.387 556.248 272.91C560.266 273.24 563.28 271.589 564.491 267.46" stroke="black" stroke-width="2" stroke-linecap="round" stroke-linejoin="round"></path><path d="M756.882 316.218C760.171 316.782 762.882 315.213 764.355 312.736C771.662 300.488 779.741 288.474 780.883 273.638C781.254 268.808 781.241 263.854 779.493 259.244C778.075 255.514 776.19 252.06 771.318 251.606C765.91 251.097 761.988 254.069 759.786 257.936C749.767 275.579 748.529 294.254 754.859 313.465C755.038 314.016 755.74 314.387 756.194 314.855" stroke="black" stroke-width="2" stroke-linecap="round" stroke-linejoin="round"></path><path d="M132.934 320.346C134.681 320.277 135.851 321.296 137.076 322.383C142.677 327.42 148.842 329.636 156.315 326.553C164.104 323.36 166.595 316.741 167.958 309.337C169.072 303.282 166.76 297.681 163.678 292.974C159.604 286.767 154.457 281.208 149.365 275.744C143.2 269.125 137.778 270.226 133.608 278.428C129.301 286.891 128.64 295.96 128.764 305.222C128.778 306.571 129.562 308.167 128.131 309.337" stroke="black" stroke-width="2" stroke-linecap="round" stroke-linejoin="round"></path><path d="M812.548 292.878C801.566 306.502 797.726 322.672 796.075 339.572C795.29 347.581 794.643 355.591 794.01 363.6C792.51 382.33 780.551 392.197 764.464 398.651C762.454 399.463 759.757 399.271 758.959 402.064" stroke="black" stroke-width="2" stroke-linecap="round" stroke-linejoin="round"></path><path d="M362.455 472.112C345.28 474.452 328.711 471.768 312.252 466.745C301.38 463.429 290.247 460.085 278.632 462.562C271.682 464.048 264.787 465.892 258.044 468.108C254.947 469.126 252.112 469.236 249.071 468.644C249.03 468.644 248.989 468.163 249.071 467.998C249.236 467.722 249.511 467.53 249.745 467.296" stroke="black" stroke-width="2" stroke-linecap="round" stroke-linejoin="round"></path><path d="M591.96 182.315C585.602 176.906 577.73 175.847 569.968 175.558C548.225 174.773 526.453 174.677 504.696 174.016C490.948 173.604 477.213 172.255 463.465 172.159C454.094 172.09 444.722 173.507 435.295 173.48C429.487 173.466 423.625 175.778 418.051 172.103C417.363 171.649 415.822 172.461 414.68 172.695" stroke="black" stroke-width="2" stroke-linecap="round" stroke-linejoin="round"></path><path d="M366.569 202.916C362.468 198.787 356.909 200.177 352.119 199.668C334.532 197.81 316.848 196.888 299.246 195.209C296.26 194.92 293.714 195.319 290.976 196.021C280.916 198.581 270.828 196.42 260.741 196.118C243.607 195.608 241.584 195.897 241.116 211.173C240.401 234.252 240.029 257.413 241.461 280.533C241.694 284.358 243.305 287.565 244.942 290.826" stroke="black" stroke-width="2" stroke-linecap="round" stroke-linejoin="round"></path><path d="M367.946 285.323C377.965 278.524 388.025 281.676 397.369 286.258C402.199 288.625 407.869 291.997 407.759 299.057C407.718 302.126 411.035 301.919 412.177 304.438C416.539 314.057 413.181 322.025 406.975 328.466C385.589 350.678 368.579 376.288 350.331 400.895C341.441 412.881 334.189 426.134 324.872 437.955C322.711 440.694 320.385 443.364 317.674 444.354C314.729 445.442 314.303 447.575 312.968 449.46" stroke="black" stroke-width="2" stroke-linecap="round" stroke-linejoin="round"></path><path d="M818.728 97.8447C801.774 98.987 784.819 100.102 767.878 101.285C755.506 102.152 743.134 103.102 730.776 104.024" stroke="black" stroke-width="2" stroke-linecap="round" stroke-linejoin="round"></path><path d="M406.423 297.68C395.551 290.634 383.702 287.139 370.711 286.41C367.009 286.203 364.6 287.497 361.765 288.763C348.485 294.694 341.068 306.474 332.838 317.553C323.122 330.64 313.819 344.072 302.672 356.058C288.208 371.595 273.882 387.256 259.322 402.711C255.208 407.087 251.341 411.849 245.629 414.45C243.606 415.372 241.693 416.61 239.437 415.124" stroke="black" stroke-width="2" stroke-linecap="round" stroke-linejoin="round"></path><path d="M357.638 292.878C357.404 296.951 355.326 300.172 352.821 303.172C351.252 305.043 349.56 306.791 348.032 308.677C335.88 323.787 344.784 334.686 355.615 341.567C365.4 347.774 376.051 351.187 387.873 349.191" stroke="black" stroke-width="2" stroke-linecap="round" stroke-linejoin="round"></path><path d="M811.173 270.9C801.499 279.034 794.521 289.534 786.319 298.947C774.911 312.035 765.525 326.884 752.149 338.265C751.02 339.228 750.277 341.044 751.323 343.026C752.327 344.925 752.768 347.113 753.456 349.164" stroke="black" stroke-width="2" stroke-linecap="round" stroke-linejoin="round"></path><path d="M517.756 346.439C519.339 346.81 521.031 345.778 522.586 347.099C528.256 351.93 534.132 349.741 539.72 347.072C549.917 342.2 560.018 337.232 566.652 327.282C569.418 323.14 569.803 319.204 567.133 315.612C561.711 308.305 558.009 299.263 548.004 296.263C534.821 292.3 524.018 297.749 513.682 304.644C507.875 308.511 504.242 314.525 500.567 320.36" stroke="black" stroke-width="2" stroke-linecap="round" stroke-linejoin="round"></path><path d="M510.189 338.196C507.381 338.568 505.441 337.219 503.253 335.526C493.606 328.095 482.61 327.943 473.087 334.756C465.807 339.971 461.953 351.146 466.412 362.83C470.486 373.495 476.334 383.486 481.289 393.835C482.39 396.147 483.147 398.693 482.706 401.363" stroke="black" stroke-width="2" stroke-linecap="round" stroke-linejoin="round"></path><path d="M718.405 101.271C709.047 95.7938 698.712 93.358 688.156 91.7203C685.789 91.3487 682.803 90.8671 682.005 94.4039C681.262 97.6929 684.042 98.3948 686.12 99.1517C696.565 103.005 707.368 103.941 718.405 102.633" stroke="black" stroke-width="2" stroke-linecap="round" stroke-linejoin="round"></path><path d="M318.472 334.769C312.238 338.581 305.055 340.177 299.743 346.287C280.352 368.526 261.581 391.33 241.035 412.564C236.81 416.927 231.319 418.234 226.915 421.771C225.773 422.693 224.672 423.67 223.653 424.73" stroke="black" stroke-width="2" stroke-linecap="round" stroke-linejoin="round"></path><path d="M525.312 361.549C532.813 369.269 537.533 379.412 545.983 386.196C561.286 398.458 570.341 415.839 583.043 430.207C589.085 437.046 594.727 444.436 604.333 446.693" stroke="black" stroke-width="2" stroke-linecap="round" stroke-linejoin="round"></path><path d="M484.082 404.129C484.853 410.432 488.844 415.29 491.734 420.56C498.284 432.52 502.894 445.442 510.188 457.016" stroke="black" stroke-width="2" stroke-linecap="round" stroke-linejoin="round"></path><path d="M206.464 86.8496C190.5 94.8452 174.633 103.034 157.678 108.841C156.591 109.213 155.022 109.103 154.926 110.878" stroke="black" stroke-width="2" stroke-linecap="round" stroke-linejoin="round"></path><path d="M551.418 390.38C551.047 388.798 552.079 387.105 550.758 385.55C543.615 377.114 536.528 368.637 529.441 360.159C528.711 359.279 527.844 357.448 527.404 357.545C518.28 359.719 509.981 349.866 500.499 355.921C497.802 357.641 494.004 357.517 490.99 358.866C483.449 362.237 475.811 365.664 473.086 374.596" stroke="black" stroke-width="2" stroke-linecap="round" stroke-linejoin="round"></path><path d="M748.639 406.179C744.4 410.404 738.359 411.422 733.611 414.546C725.602 419.83 718.033 425.776 712.198 433.634C709.17 437.707 706.005 441.698 701.229 443.955" stroke="black" stroke-width="2" stroke-linecap="round" stroke-linejoin="round"></path><path d="M378.941 467.983C388.754 457.51 399.749 454.648 413.373 460.951C424.149 465.946 435.833 467.157 447.654 464.543" stroke="black" stroke-width="2" stroke-linecap="round" stroke-linejoin="round"></path><path d="M585.782 312.104C584.722 316.521 588.933 318.406 590.819 320.856C604.58 338.746 619.223 355.962 636.701 370.385C643.981 376.399 648.027 385.083 655.183 391.083C659.38 394.592 663.619 397.964 669.619 397.262" stroke="black" stroke-width="2" stroke-linecap="round" stroke-linejoin="round"></path><path d="M615.328 61.4451C606.273 56.2569 596.543 58.9129 587.171 59.6423C582.423 60.0139 580.153 68.5875 581.653 76.5556" stroke="black" stroke-width="2" stroke-linecap="round" stroke-linejoin="round"></path><path d="M681.301 405.491C675.218 403.372 671.076 398.734 667.649 393.752C659.2 381.504 647.956 372.16 636.506 363.077C634.139 361.206 631.139 357.848 627.011 360.173" stroke="black" stroke-width="2" stroke-linecap="round" stroke-linejoin="round"></path><path d="M255.249 286.698C244.13 290.992 234.4 298.354 222.29 300.57C214.088 302.07 206.463 303.088 199.541 297.061C197.505 295.286 196.844 293.441 196.761 290.827C196.596 286.01 195.922 281.207 195.468 276.404" stroke="black" stroke-width="2" stroke-linecap="round" stroke-linejoin="round"></path><path d="M460.026 169.943C446.608 166.682 433.328 167.315 420.172 171.319" stroke="black" stroke-width="2" stroke-linecap="round" stroke-linejoin="round"></path><path d="M633.191 77.9315C636.438 74.6011 640.003 71.601 640.127 66.2614C640.264 60.2062 638.489 57.7429 632.503 58.1144C627.576 58.4172 622.484 58.6374 618.066 61.4586" stroke="black" stroke-width="2" stroke-linecap="round" stroke-linejoin="round"></path><path d="M409.177 302.483C408.681 312.103 404.773 320.704 400.81 329.209C399.915 331.122 398.718 332.608 399.557 334.755" stroke="black" stroke-width="2" stroke-linecap="round" stroke-linejoin="round"></path><path d="M592.648 242.056C594.327 254.441 594.327 254.373 607.773 254.455C613.277 254.483 618.81 254.551 624.259 255.184C632.723 256.162 640.897 263.304 642.136 270.212" stroke="black" stroke-width="2" stroke-linecap="round" stroke-linejoin="round"></path><path d="M432.543 415.11C434.194 426.381 440.153 430.235 449.126 427.014C452.828 425.679 452.566 422.06 455.222 420.601" stroke="black" stroke-width="2" stroke-linecap="round" stroke-linejoin="round"></path><path d="M286.861 194.672C279.76 193.984 272.659 193.241 265.558 192.635C263.095 192.429 260.411 192.126 259.379 195.36" stroke="black" stroke-width="2" stroke-linecap="round" stroke-linejoin="round"></path><path d="M465.53 386.954C464.333 385.963 463.466 383.747 461.429 385.591C458.814 387.958 456.998 390.697 457.259 394.509C457.658 400.096 460.714 405.229 460.039 410.982" stroke="black" stroke-width="2" stroke-linecap="round" stroke-linejoin="round"></path><path d="M457.274 413.046C453.544 409.055 449.815 405.037 443.539 406.193C441.682 406.537 439.273 406.496 438.131 407.638C425.883 419.927 412.782 431.46 402.997 446.006" stroke="black" stroke-width="2" stroke-linecap="round" stroke-linejoin="round"></path><path d="M222.95 86.1745C217.734 84.7571 212.408 85.803 207.151 85.4864" stroke="black" stroke-width="2" stroke-linecap="round" stroke-linejoin="round"></path><path d="M819 97C856.202 83.7606 941.202 59.967 983.593 70.7077C1036.58 84.1336 1060.5 108.188 1068 70.7077" stroke="black" stroke-width="2"></path></svg>